<mxfile host="app.diagrams.net" agent="Mozilla/5.0 (Windows NT 10.0; Win64; x64) AppleWebKit/537.36 (KHTML, like Gecko) Chrome/128.0.0.0 Safari/537.36" version="24.7.8">
  <diagram id="C5RBs43oDa-KdzZeNtuy" name="Page-1">
    <mxGraphModel dx="1050" dy="557" grid="1" gridSize="10" guides="1" tooltips="1" connect="1" arrows="1" fold="1" page="1" pageScale="1" pageWidth="827" pageHeight="1169" math="0" shadow="0">
      <root>
        <mxCell id="WIyWlLk6GJQsqaUBKTNV-0" />
        <mxCell id="WIyWlLk6GJQsqaUBKTNV-1" parent="WIyWlLk6GJQsqaUBKTNV-0" />
        <mxCell id="XyEsbO87603PDXtZrOf_-19" value="" style="edgeStyle=orthogonalEdgeStyle;rounded=0;orthogonalLoop=1;jettySize=auto;html=1;" edge="1" parent="WIyWlLk6GJQsqaUBKTNV-1" source="XyEsbO87603PDXtZrOf_-0" target="XyEsbO87603PDXtZrOf_-18">
          <mxGeometry relative="1" as="geometry" />
        </mxCell>
        <mxCell id="XyEsbO87603PDXtZrOf_-41" style="edgeStyle=orthogonalEdgeStyle;rounded=0;orthogonalLoop=1;jettySize=auto;html=1;entryX=0.5;entryY=0;entryDx=0;entryDy=0;" edge="1" parent="WIyWlLk6GJQsqaUBKTNV-1" source="XyEsbO87603PDXtZrOf_-0" target="XyEsbO87603PDXtZrOf_-1">
          <mxGeometry relative="1" as="geometry" />
        </mxCell>
        <mxCell id="XyEsbO87603PDXtZrOf_-0" value="Start" style="ellipse;whiteSpace=wrap;html=1;" vertex="1" parent="WIyWlLk6GJQsqaUBKTNV-1">
          <mxGeometry x="400" y="30" width="86" height="40" as="geometry" />
        </mxCell>
        <mxCell id="XyEsbO87603PDXtZrOf_-3" value="" style="edgeStyle=orthogonalEdgeStyle;rounded=0;orthogonalLoop=1;jettySize=auto;html=1;" edge="1" parent="WIyWlLk6GJQsqaUBKTNV-1" source="XyEsbO87603PDXtZrOf_-1" target="XyEsbO87603PDXtZrOf_-2">
          <mxGeometry relative="1" as="geometry" />
        </mxCell>
        <mxCell id="XyEsbO87603PDXtZrOf_-1" value="Admin" style="rounded=0;whiteSpace=wrap;html=1;" vertex="1" parent="WIyWlLk6GJQsqaUBKTNV-1">
          <mxGeometry x="205" y="100" width="100" height="30" as="geometry" />
        </mxCell>
        <mxCell id="XyEsbO87603PDXtZrOf_-7" value="" style="edgeStyle=orthogonalEdgeStyle;rounded=0;orthogonalLoop=1;jettySize=auto;html=1;" edge="1" parent="WIyWlLk6GJQsqaUBKTNV-1" source="XyEsbO87603PDXtZrOf_-2" target="XyEsbO87603PDXtZrOf_-6">
          <mxGeometry relative="1" as="geometry" />
        </mxCell>
        <mxCell id="XyEsbO87603PDXtZrOf_-2" value="Login" style="whiteSpace=wrap;html=1;rounded=0;" vertex="1" parent="WIyWlLk6GJQsqaUBKTNV-1">
          <mxGeometry x="200" y="170" width="110" height="30" as="geometry" />
        </mxCell>
        <mxCell id="XyEsbO87603PDXtZrOf_-9" value="" style="edgeStyle=orthogonalEdgeStyle;rounded=0;orthogonalLoop=1;jettySize=auto;html=1;" edge="1" parent="WIyWlLk6GJQsqaUBKTNV-1" source="XyEsbO87603PDXtZrOf_-6" target="XyEsbO87603PDXtZrOf_-8">
          <mxGeometry relative="1" as="geometry" />
        </mxCell>
        <mxCell id="XyEsbO87603PDXtZrOf_-11" value="" style="edgeStyle=orthogonalEdgeStyle;rounded=0;orthogonalLoop=1;jettySize=auto;html=1;" edge="1" parent="WIyWlLk6GJQsqaUBKTNV-1" source="XyEsbO87603PDXtZrOf_-6" target="XyEsbO87603PDXtZrOf_-10">
          <mxGeometry relative="1" as="geometry" />
        </mxCell>
        <mxCell id="XyEsbO87603PDXtZrOf_-6" value="Admin Page" style="whiteSpace=wrap;html=1;rounded=0;" vertex="1" parent="WIyWlLk6GJQsqaUBKTNV-1">
          <mxGeometry x="200" y="240" width="110" height="30" as="geometry" />
        </mxCell>
        <mxCell id="XyEsbO87603PDXtZrOf_-14" style="edgeStyle=orthogonalEdgeStyle;rounded=0;orthogonalLoop=1;jettySize=auto;html=1;entryX=0;entryY=0.5;entryDx=0;entryDy=0;" edge="1" parent="WIyWlLk6GJQsqaUBKTNV-1" source="XyEsbO87603PDXtZrOf_-8" target="XyEsbO87603PDXtZrOf_-12">
          <mxGeometry relative="1" as="geometry">
            <Array as="points">
              <mxPoint x="120" y="395" />
            </Array>
          </mxGeometry>
        </mxCell>
        <mxCell id="XyEsbO87603PDXtZrOf_-8" value="Add Packages" style="whiteSpace=wrap;html=1;rounded=0;" vertex="1" parent="WIyWlLk6GJQsqaUBKTNV-1">
          <mxGeometry x="70" y="310" width="100" height="30" as="geometry" />
        </mxCell>
        <mxCell id="XyEsbO87603PDXtZrOf_-13" value="" style="edgeStyle=orthogonalEdgeStyle;rounded=0;orthogonalLoop=1;jettySize=auto;html=1;" edge="1" parent="WIyWlLk6GJQsqaUBKTNV-1" source="XyEsbO87603PDXtZrOf_-10" target="XyEsbO87603PDXtZrOf_-12">
          <mxGeometry relative="1" as="geometry">
            <Array as="points">
              <mxPoint x="390" y="395" />
            </Array>
          </mxGeometry>
        </mxCell>
        <mxCell id="XyEsbO87603PDXtZrOf_-10" value="Remove packages" style="whiteSpace=wrap;html=1;rounded=0;" vertex="1" parent="WIyWlLk6GJQsqaUBKTNV-1">
          <mxGeometry x="330" y="310" width="120" height="30" as="geometry" />
        </mxCell>
        <mxCell id="XyEsbO87603PDXtZrOf_-17" value="" style="edgeStyle=orthogonalEdgeStyle;rounded=0;orthogonalLoop=1;jettySize=auto;html=1;" edge="1" parent="WIyWlLk6GJQsqaUBKTNV-1" source="XyEsbO87603PDXtZrOf_-12" target="XyEsbO87603PDXtZrOf_-16">
          <mxGeometry relative="1" as="geometry">
            <Array as="points">
              <mxPoint x="265" y="500" />
            </Array>
          </mxGeometry>
        </mxCell>
        <mxCell id="XyEsbO87603PDXtZrOf_-12" value="Manage Customers List" style="whiteSpace=wrap;html=1;rounded=0;" vertex="1" parent="WIyWlLk6GJQsqaUBKTNV-1">
          <mxGeometry x="205" y="380" width="120" height="30" as="geometry" />
        </mxCell>
        <mxCell id="XyEsbO87603PDXtZrOf_-40" value="" style="edgeStyle=orthogonalEdgeStyle;rounded=0;orthogonalLoop=1;jettySize=auto;html=1;" edge="1" parent="WIyWlLk6GJQsqaUBKTNV-1" source="XyEsbO87603PDXtZrOf_-16" target="XyEsbO87603PDXtZrOf_-38">
          <mxGeometry relative="1" as="geometry" />
        </mxCell>
        <mxCell id="XyEsbO87603PDXtZrOf_-16" value="Logout" style="whiteSpace=wrap;html=1;rounded=0;" vertex="1" parent="WIyWlLk6GJQsqaUBKTNV-1">
          <mxGeometry x="410" y="480" width="120" height="30" as="geometry" />
        </mxCell>
        <mxCell id="XyEsbO87603PDXtZrOf_-21" value="" style="edgeStyle=orthogonalEdgeStyle;rounded=0;orthogonalLoop=1;jettySize=auto;html=1;" edge="1" parent="WIyWlLk6GJQsqaUBKTNV-1" source="XyEsbO87603PDXtZrOf_-18" target="XyEsbO87603PDXtZrOf_-20">
          <mxGeometry relative="1" as="geometry" />
        </mxCell>
        <mxCell id="XyEsbO87603PDXtZrOf_-18" value="User" style="whiteSpace=wrap;html=1;" vertex="1" parent="WIyWlLk6GJQsqaUBKTNV-1">
          <mxGeometry x="570" y="100" width="120" height="30" as="geometry" />
        </mxCell>
        <mxCell id="XyEsbO87603PDXtZrOf_-23" value="" style="edgeStyle=orthogonalEdgeStyle;rounded=0;orthogonalLoop=1;jettySize=auto;html=1;" edge="1" parent="WIyWlLk6GJQsqaUBKTNV-1" source="XyEsbO87603PDXtZrOf_-20" target="XyEsbO87603PDXtZrOf_-22">
          <mxGeometry relative="1" as="geometry" />
        </mxCell>
        <mxCell id="XyEsbO87603PDXtZrOf_-20" value="Browse Venues" style="whiteSpace=wrap;html=1;" vertex="1" parent="WIyWlLk6GJQsqaUBKTNV-1">
          <mxGeometry x="570" y="150" width="120" height="30" as="geometry" />
        </mxCell>
        <mxCell id="XyEsbO87603PDXtZrOf_-25" value="" style="edgeStyle=orthogonalEdgeStyle;rounded=0;orthogonalLoop=1;jettySize=auto;html=1;" edge="1" parent="WIyWlLk6GJQsqaUBKTNV-1" source="XyEsbO87603PDXtZrOf_-22" target="XyEsbO87603PDXtZrOf_-24">
          <mxGeometry relative="1" as="geometry" />
        </mxCell>
        <mxCell id="XyEsbO87603PDXtZrOf_-22" value="Select Package" style="whiteSpace=wrap;html=1;" vertex="1" parent="WIyWlLk6GJQsqaUBKTNV-1">
          <mxGeometry x="570" y="200" width="120" height="30" as="geometry" />
        </mxCell>
        <mxCell id="XyEsbO87603PDXtZrOf_-27" value="" style="edgeStyle=orthogonalEdgeStyle;rounded=0;orthogonalLoop=1;jettySize=auto;html=1;" edge="1" parent="WIyWlLk6GJQsqaUBKTNV-1" source="XyEsbO87603PDXtZrOf_-24" target="XyEsbO87603PDXtZrOf_-26">
          <mxGeometry relative="1" as="geometry">
            <Array as="points">
              <mxPoint x="730" y="275" />
            </Array>
          </mxGeometry>
        </mxCell>
        <mxCell id="XyEsbO87603PDXtZrOf_-29" value="" style="edgeStyle=orthogonalEdgeStyle;rounded=0;orthogonalLoop=1;jettySize=auto;html=1;" edge="1" parent="WIyWlLk6GJQsqaUBKTNV-1" source="XyEsbO87603PDXtZrOf_-24" target="XyEsbO87603PDXtZrOf_-28">
          <mxGeometry relative="1" as="geometry">
            <Array as="points">
              <mxPoint x="540" y="275" />
            </Array>
          </mxGeometry>
        </mxCell>
        <mxCell id="XyEsbO87603PDXtZrOf_-24" value="Register Customer" style="rhombus;whiteSpace=wrap;html=1;" vertex="1" parent="WIyWlLk6GJQsqaUBKTNV-1">
          <mxGeometry x="590" y="250" width="80" height="50" as="geometry" />
        </mxCell>
        <mxCell id="XyEsbO87603PDXtZrOf_-31" value="" style="edgeStyle=orthogonalEdgeStyle;rounded=0;orthogonalLoop=1;jettySize=auto;html=1;" edge="1" parent="WIyWlLk6GJQsqaUBKTNV-1" source="XyEsbO87603PDXtZrOf_-26" target="XyEsbO87603PDXtZrOf_-30">
          <mxGeometry relative="1" as="geometry">
            <Array as="points">
              <mxPoint x="730" y="380" />
            </Array>
          </mxGeometry>
        </mxCell>
        <mxCell id="XyEsbO87603PDXtZrOf_-26" value="Register" style="whiteSpace=wrap;html=1;" vertex="1" parent="WIyWlLk6GJQsqaUBKTNV-1">
          <mxGeometry x="690" y="305" width="80" height="30" as="geometry" />
        </mxCell>
        <mxCell id="XyEsbO87603PDXtZrOf_-32" style="edgeStyle=orthogonalEdgeStyle;rounded=0;orthogonalLoop=1;jettySize=auto;html=1;entryX=0;entryY=0.5;entryDx=0;entryDy=0;" edge="1" parent="WIyWlLk6GJQsqaUBKTNV-1" source="XyEsbO87603PDXtZrOf_-28" target="XyEsbO87603PDXtZrOf_-30">
          <mxGeometry relative="1" as="geometry">
            <Array as="points">
              <mxPoint x="530" y="375" />
            </Array>
          </mxGeometry>
        </mxCell>
        <mxCell id="XyEsbO87603PDXtZrOf_-28" value="Login" style="whiteSpace=wrap;html=1;" vertex="1" parent="WIyWlLk6GJQsqaUBKTNV-1">
          <mxGeometry x="480" y="300" width="90" height="35" as="geometry" />
        </mxCell>
        <mxCell id="XyEsbO87603PDXtZrOf_-34" value="" style="edgeStyle=orthogonalEdgeStyle;rounded=0;orthogonalLoop=1;jettySize=auto;html=1;" edge="1" parent="WIyWlLk6GJQsqaUBKTNV-1" source="XyEsbO87603PDXtZrOf_-30" target="XyEsbO87603PDXtZrOf_-33">
          <mxGeometry relative="1" as="geometry" />
        </mxCell>
        <mxCell id="XyEsbO87603PDXtZrOf_-30" value="Confirm Booking" style="whiteSpace=wrap;html=1;" vertex="1" parent="WIyWlLk6GJQsqaUBKTNV-1">
          <mxGeometry x="580" y="360" width="120" height="30" as="geometry" />
        </mxCell>
        <mxCell id="XyEsbO87603PDXtZrOf_-37" style="edgeStyle=orthogonalEdgeStyle;rounded=0;orthogonalLoop=1;jettySize=auto;html=1;entryX=1;entryY=0.5;entryDx=0;entryDy=0;" edge="1" parent="WIyWlLk6GJQsqaUBKTNV-1" source="XyEsbO87603PDXtZrOf_-33" target="XyEsbO87603PDXtZrOf_-16">
          <mxGeometry relative="1" as="geometry">
            <Array as="points">
              <mxPoint x="640" y="495" />
            </Array>
          </mxGeometry>
        </mxCell>
        <mxCell id="XyEsbO87603PDXtZrOf_-33" value="Congratulation Your Packages is booked" style="shape=parallelogram;perimeter=parallelogramPerimeter;whiteSpace=wrap;html=1;fixedSize=1;" vertex="1" parent="WIyWlLk6GJQsqaUBKTNV-1">
          <mxGeometry x="565" y="420" width="150" height="40" as="geometry" />
        </mxCell>
        <mxCell id="XyEsbO87603PDXtZrOf_-38" value="end" style="ellipse;whiteSpace=wrap;html=1;" vertex="1" parent="WIyWlLk6GJQsqaUBKTNV-1">
          <mxGeometry x="420" y="550" width="100" height="45" as="geometry" />
        </mxCell>
      </root>
    </mxGraphModel>
  </diagram>
</mxfile>
